# xmcd CD database file
#
# Track frame offsets:
#	150
#	15883
#	30631
#	46222
#	65950
#	75926
#	91375
#	108165
#	118888
#	132074
#	147415
#	160672
#	177986
#	197405
#
# Disc length: 2855 seconds
#
# Revision: 3
# Processed by: cddbd v1.5.1PL2 Copyright (c) Steve Scherf et al.
# Submitted via: CDex 1.51
#
DISCID=ad0b250e
DTITLE=Homebrew Dixie - Borderline Blues
DYEAR=2001
DGENRE=Jazz
TTITLE0=I Found a New Baby
TTITLE1=St. James Infirmary
TTITLE2=That's a Plenty
TTITLE3=Won't You Come Home Bill Baily
TTITLE4=Indiana
TTITLE5=Sweet Georgia Brown
TTITLE6=Bye Bye Blackbird
TTITLE7=Up a Lazy River
TTITLE8=Just a closer Walk With Thee
TTITLE9=Royal Garden Blues
TTITLE10=Blues My Naughty Sweetie Gave Me
TTITLE11=Dr. Jazz
TTITLE12=On the Sunny Side Of The Street
TTITLE13=It Don't Mean A Thing
EXTD=YEAR: 2001
EXTT0=
EXTT1=
EXTT2=
EXTT3=
EXTT4=
EXTT5=
EXTT6=
EXTT7=
EXTT8=
EXTT9=
EXTT10=
EXTT11=
EXTT12=
EXTT13=
PLAYORDER=
